<svg width="336" height="111" fill="none" xmlns="http://www.w3.org/2000/svg"><path d="M111.614 55.423c0 30.609-24.813 55.423-55.423 55.423C25.582 110.846.77 86.032.77 55.423.769 24.813 25.582 0 56.19 0c30.61 0 55.423 24.814 55.423 55.423Zm-103.013 0c0 26.283 21.307 47.59 47.59 47.59 26.284 0 47.591-21.307 47.591-47.59 0-26.284-21.307-47.59-47.59-47.59C29.907 7.832 8.6 29.138 8.6 55.422Z" fill="#D9D9D9"/><path d="M75.273 107.457A55.422 55.422 0 1 0 21.37 12.305l5.27 6.525a47.037 47.037 0 1 1 45.745 80.753l2.888 7.874Z" fill="#FF6A07"/><path stroke="#fff" stroke-width=".744" d="m111.614 55.031 223.923.04"/></svg>