<svg width="1116" height="111" fill="none" xmlns="http://www.w3.org/2000/svg"><path d="M110.846 55.423c0 30.609-24.814 55.423-55.423 55.423C24.813 110.846 0 86.032 0 55.423 0 24.813 24.814 0 55.423 0s55.423 24.814 55.423 55.423Zm-103.014 0c0 26.283 21.307 47.59 47.59 47.59 26.284 0 47.591-21.307 47.591-47.59 0-26.284-21.307-47.59-47.59-47.59-26.284 0-47.59 21.306-47.59 47.59Z" fill="#D9D9D9"/><path d="M110.846 55.423a55.424 55.424 0 0 0-87.918-44.898l4.918 6.794a47.036 47.036 0 0 1 74.613 38.104h8.387Z" fill="#FF6A07"/><path stroke="#fff" stroke-width=".744" d="m110.846 55.031 223.923.04"/><path d="M445.614 55.423c0 30.609-24.813 55.423-55.423 55.423-30.609 0-55.422-24.814-55.422-55.423C334.769 24.813 359.582 0 390.191 0c30.61 0 55.423 24.814 55.423 55.423Zm-103.013 0c0 26.283 21.307 47.59 47.59 47.59 26.284 0 47.591-21.307 47.591-47.59 0-26.284-21.307-47.59-47.591-47.59-26.283 0-47.59 21.306-47.59 47.59Z" fill="#D9D9D9"/><path d="M409.273 107.457a55.428 55.428 0 0 0 32.944-32.928 55.416 55.416 0 0 0-3.803-46.424 55.42 55.42 0 0 0-83.044-15.8l5.269 6.525a47.041 47.041 0 0 1 38.344-9.614 47.035 47.035 0 0 1 7.402 90.367l2.888 7.874Z" fill="#FF6A07"/><path stroke="#fff" stroke-width=".744" d="m445.614 55.031 223.923.04"/><path d="M780.383 55.423c0 30.609-24.814 55.423-55.423 55.423s-55.423-24.814-55.423-55.423C669.537 24.813 694.351 0 724.96 0s55.423 24.814 55.423 55.423Zm-103.013 0c0 26.283 21.307 47.59 47.59 47.59 26.283 0 47.59-21.307 47.59-47.59 0-26.284-21.307-47.59-47.59-47.59-26.283 0-47.59 21.306-47.59 47.59Z" fill="#D9D9D9"/><path d="M669.537 55.423a55.424 55.424 0 1 0 42.749-53.954l1.918 8.164a47.035 47.035 0 1 1-36.28 45.79h-8.387Z" fill="#FF6A07"/><path stroke="#fff" stroke-width=".744" d="m780.383 55.031 223.927.04"/><path d="M1115.15 55.423c0 30.609-24.81 55.423-55.42 55.423-30.61 0-55.42-24.814-55.42-55.423 0-30.61 24.81-55.423 55.42-55.423 30.61 0 55.42 24.814 55.42 55.423Zm-103.01 0c0 26.283 21.31 47.59 47.59 47.59 26.28 0 47.59-21.307 47.59-47.59 0-26.284-21.31-47.59-47.59-47.59-26.28 0-47.59 21.306-47.59 47.59Z" fill="#D9D9D9"/><path d="M1115.15 55.423c0 30.609-24.81 55.423-55.42 55.423-30.61 0-55.42-24.814-55.42-55.423 0-30.61 24.81-55.423 55.42-55.423 30.61 0 55.42 24.814 55.42 55.423Zm-102.46 0c0 25.977 21.06 47.036 47.04 47.036s47.03-21.059 47.03-47.036-21.05-47.036-47.03-47.036-47.04 21.059-47.04 47.036Z" fill="#FF6A07"/></svg>