<svg width="336" height="111" fill="none" xmlns="http://www.w3.org/2000/svg"><path d="M111.383 55.423c0 30.609-24.814 55.423-55.423 55.423-30.61 0-55.423-24.814-55.423-55.423C.537 24.813 25.351 0 55.96 0c30.61 0 55.423 24.814 55.423 55.423Zm-103.013 0c0 26.283 21.306 47.59 47.59 47.59 26.283 0 47.59-21.307 47.59-47.59 0-26.284-21.307-47.59-47.59-47.59-26.284 0-47.59 21.306-47.59 47.59Z" fill="#D9D9D9"/><path d="M.537 55.423A55.423 55.423 0 1 0 43.286 1.469l1.918 8.164a47.036 47.036 0 1 1-36.28 45.79H.537Z" fill="#FF6A07"/><path stroke="#fff" stroke-width=".744" d="m111.383 55.031 223.923.04"/></svg>