<svg width="112" height="111" fill="none" xmlns="http://www.w3.org/2000/svg"><path d="M111.151 55.423c0 30.609-24.813 55.423-55.422 55.423-30.61 0-55.423-24.814-55.423-55.423C.306 24.813 25.119 0 55.728 0c30.61 0 55.423 24.814 55.423 55.423Zm-103.013 0c0 26.283 21.307 47.59 47.59 47.59 26.284 0 47.591-21.307 47.591-47.59 0-26.284-21.307-47.59-47.59-47.59-26.284 0-47.59 21.306-47.59 47.59Z" fill="#D9D9D9"/><path d="M111.151 55.423c0 30.609-24.813 55.423-55.422 55.423-30.61 0-55.423-24.814-55.423-55.423C.306 24.813 25.119 0 55.728 0c30.61 0 55.423 24.814 55.423 55.423Zm-102.458 0c0 25.977 21.058 47.036 47.035 47.036 25.978 0 47.036-21.059 47.036-47.036S81.706 8.387 55.729 8.387c-25.978 0-47.036 21.059-47.036 47.036Z" fill="#FF6A07"/></svg>