<svg width="18" height="18" fill="none" xmlns="http://www.w3.org/2000/svg"><path d="M11.36 3.594c.749 1.653 1.669 3.68 2.359 4.486.135-.313.12-.837.274-2.119.14-1.155 1.093-1.265 1.503-1.183.905.189 1.18 1.106 1.15 1.444-.048.539-.05.52-.149 1.825-.145 1.906.591 3.345.66 4.978 0 3.076-2.697 4.588-4.584 4.588-1.51 0-3.02-.966-3.586-1.45l-2.831-2.585c-.347-.27-1.203-1.159-1.58-1.67-1.024-1.394.458-2.355 1.29-2.113-.065-.05-.46-.693-.65-1.007-.507-1.02 0-1.7.377-1.887.852-.424 1.478.053 1.675.313-.076-.128-.312-.647-.693-1.599-.382-.95.232-1.538.587-1.713.77-.357 1.502.096 1.685.5.09.198.573 1.257.783 1.723a19.964 19.964 0 0 1-.547-1.511c-.202-.838.284-1.412.592-1.56.428-.205 1.322-.259 1.676.52l.008.02Z" fill="url(#a)"/><path d="M11.36 3.594c.75 1.653 1.669 3.68 2.359 4.486.135-.313.12-.837.274-2.119.14-1.155 1.093-1.265 1.503-1.183.905.189 1.18 1.106 1.15 1.444-.047.539-.05.52-.149 1.825-.144 1.906.592 3.345.66 4.978 0 3.076-2.697 4.588-4.583 4.588-1.51 0-3.021-.966-3.587-1.45l-2.831-2.585c-.347-.27-1.203-1.159-1.58-1.67-1.024-1.394.458-2.355 1.291-2.113-.065-.05-.46-.693-.65-1.007-.508-1.02 0-1.7.376-1.887.852-.424 1.478.053 1.675.313-.075-.128-.312-.647-.693-1.599-.381-.95.233-1.538.587-1.713.77-.357 1.502.096 1.685.5l.784 1.723a19.964 19.964 0 0 1-.548-1.511c-.202-.838.284-1.412.592-1.56.429-.205 1.322-.259 1.675.52l.01.02Z" fill="url(#b)"/><path d="M16.647 6.222c-.048.539-.05.52-.15 1.824-.05.674.316 3.155.316 3.155-.89.29-2.82-.095-3.093-3.12.135-.314.12-.838.274-2.12.139-1.155 1.093-1.266 1.502-1.184.906.19 1.181 1.107 1.15 1.445Z" fill="url(#c)"/><path d="M16.647 6.222c-.048.539-.05.52-.15 1.824-.05.674.316 3.155.316 3.155-.89.29-2.82-.095-3.093-3.12.135-.314.12-.838.274-2.12.139-1.155 1.093-1.266 1.502-1.184.906.19 1.181 1.107 1.15 1.445Z" fill="url(#d)"/><path d="M16.647 6.222c-.048.539-.05.52-.15 1.824-.05.674.316 3.155.316 3.155-.89.29-2.82-.095-3.093-3.12.135-.314.12-.838.274-2.12.139-1.155 1.093-1.266 1.502-1.184.906.19 1.181 1.107 1.15 1.445Z" fill="url(#e)"/><path d="M11.36 3.594c.75 1.653 1.669 3.68 2.359 4.486a1.345 1.345 0 0 1-1.641 1.198c-.895-.26-1.235-.895-1.235-.895s-.234-.362-.462-.76c-.264-.462-.216-.451-.658-1.285-.086-.164-.511-1.275-.64-1.724-.202-.838.284-1.412.592-1.56.428-.205 1.322-.259 1.676.52l.008.02Z" fill="url(#f)"/><path d="M11.36 3.594c.75 1.653 1.669 3.68 2.359 4.486a1.345 1.345 0 0 1-1.641 1.198c-.895-.26-1.235-.895-1.235-.895s-.234-.362-.462-.76c-.264-.462-.216-.451-.658-1.285-.086-.164-.511-1.275-.64-1.724-.202-.838.284-1.412.592-1.56.428-.205 1.322-.259 1.676.52l.008.02Z" fill="url(#g)"/><path d="M11.36 3.594c.75 1.653 1.669 3.68 2.359 4.486a1.345 1.345 0 0 1-1.641 1.198c-.895-.26-1.235-.895-1.235-.895s-.234-.362-.462-.76c-.264-.462-.216-.451-.658-1.285-.086-.164-.511-1.275-.64-1.724-.202-.838.284-1.412.592-1.56.428-.205 1.322-.259 1.676.52l.008.02Z" fill="url(#h)"/><path d="M11.36 3.594c.75 1.653 1.669 3.68 2.359 4.486a1.345 1.345 0 0 1-1.641 1.198c-.895-.26-1.235-.895-1.235-.895s-.234-.362-.462-.76c-.264-.462-.216-.451-.658-1.285-.086-.164-.511-1.275-.64-1.724-.202-.838.284-1.412.592-1.56.428-.205 1.322-.259 1.676.52l.008.02Z" fill="url(#i)"/><path d="M11.36 3.594c.75 1.653 1.669 3.68 2.359 4.486a1.345 1.345 0 0 1-1.641 1.198c-.895-.26-1.235-.895-1.235-.895s-.234-.362-.462-.76c-.264-.462-.216-.451-.658-1.285-.086-.164-.511-1.275-.64-1.724-.202-.838.284-1.412.592-1.56.428-.205 1.322-.259 1.676.52l.008.02Z" fill="url(#j)"/><path d="M8.846 4.402c.121.267.954 2.09.877 1.936.223.505.918 1.737 1.119 2.074.446.743-.057 1.36-.382 1.549-.934.542-1.47-.15-1.47-.15C8.495 9.09 8.084 8.49 7.27 7.21a16.96 16.96 0 0 1-.697-1.594c-.355-.987.233-1.538.588-1.713.77-.357 1.501.096 1.684.5Z" fill="url(#k)"/><path d="M8.846 4.402c.121.267.954 2.09.877 1.936.223.505.918 1.737 1.119 2.074.446.743-.057 1.36-.382 1.549-.934.542-1.47-.15-1.47-.15C8.495 9.09 8.084 8.49 7.27 7.21a16.96 16.96 0 0 1-.697-1.594c-.355-.987.233-1.538.588-1.713.77-.357 1.501.096 1.684.5Z" fill="url(#l)"/><path d="M8.846 4.402c.121.267.954 2.09.877 1.936.223.505.918 1.737 1.119 2.074.446.743-.057 1.36-.382 1.549-.934.542-1.47-.15-1.47-.15C8.495 9.09 8.084 8.49 7.27 7.21a16.96 16.96 0 0 1-.697-1.594c-.355-.987.233-1.538.588-1.713.77-.357 1.501.096 1.684.5Z" fill="url(#m)"/><path d="M8.846 4.402c.121.267.954 2.09.877 1.936.223.505.918 1.737 1.119 2.074.446.743-.057 1.36-.382 1.549-.934.542-1.47-.15-1.47-.15C8.495 9.09 8.084 8.49 7.27 7.21a16.96 16.96 0 0 1-.697-1.594c-.355-.987.233-1.538.588-1.713.77-.357 1.501.096 1.684.5Z" fill="url(#n)"/><path d="M8.846 4.402c.121.267.954 2.09.877 1.936.223.505.918 1.737 1.119 2.074.446.743-.057 1.36-.382 1.549-.934.542-1.47-.15-1.47-.15C8.495 9.09 8.084 8.49 7.27 7.21a16.96 16.96 0 0 1-.697-1.594c-.355-.987.233-1.538.588-1.713.77-.357 1.501.096 1.684.5Z" fill="url(#o)"/><path d="M8.846 4.402c.121.267.954 2.09.877 1.936.223.505.918 1.737 1.119 2.074.446.743-.057 1.36-.382 1.549-.934.542-1.47-.15-1.47-.15C8.495 9.09 8.084 8.49 7.27 7.21a16.96 16.96 0 0 1-.697-1.594c-.355-.987.233-1.538.588-1.713.77-.357 1.501.096 1.684.5Z" fill="url(#p)"/><path d="M5.593 6.9c.852-.423 1.478.054 1.675.314.615.928 1.35 1.983 1.688 2.545.905 1.497-.948 2.146-.948 2.146-1.703-1.92-2.019-2.017-2.141-2.111-.066-.05-.461-.692-.65-1.006-.508-1.02 0-1.7.376-1.887Z" fill="url(#q)"/><path d="M5.593 6.9c.852-.423 1.478.054 1.675.314.615.928 1.35 1.983 1.688 2.545.905 1.497-.948 2.146-.948 2.146-1.703-1.92-2.019-2.017-2.141-2.111-.066-.05-.461-.692-.65-1.006-.508-1.02 0-1.7.376-1.887Z" fill="url(#r)"/><path d="M5.593 6.9c.852-.423 1.478.054 1.675.314.615.928 1.35 1.983 1.688 2.545.905 1.497-.948 2.146-.948 2.146-1.703-1.92-2.019-2.017-2.141-2.111-.066-.05-.461-.692-.65-1.006-.508-1.02 0-1.7.376-1.887Z" fill="url(#s)"/><path d="M5.593 6.9c.852-.423 1.478.054 1.675.314.615.928 1.35 1.983 1.688 2.545.905 1.497-.948 2.146-.948 2.146-1.703-1.92-2.019-2.017-2.141-2.111-.066-.05-.461-.692-.65-1.006-.508-1.02 0-1.7.376-1.887Z" fill="url(#t)"/><path d="M5.593 6.9c.852-.423 1.478.054 1.675.314.615.928 1.35 1.983 1.688 2.545.905 1.497-.948 2.146-.948 2.146-1.703-1.92-2.019-2.017-2.141-2.111-.066-.05-.461-.692-.65-1.006-.508-1.02 0-1.7.376-1.887Z" fill="url(#u)"/><path d="M5.593 6.9c.852-.423 1.478.054 1.675.314.615.928 1.35 1.983 1.688 2.545.905 1.497-.948 2.146-.948 2.146-1.703-1.92-2.019-2.017-2.141-2.111-.066-.05-.461-.692-.65-1.006-.508-1.02 0-1.7.376-1.887Z" fill="url(#v)"/><path d="M4.577 11.908c-1.025-1.394.457-2.355 1.29-2.113.394.243 1.004.854 1.263 1.129 1.652 1.61 1.377 2.108.915 2.655-.448.37-1.03.668-1.89 0-.346-.27-1.202-1.16-1.578-1.671Z" fill="url(#w)"/><path d="M4.577 11.908c-1.025-1.394.457-2.355 1.29-2.113.394.243 1.004.854 1.263 1.129 1.652 1.61 1.377 2.108.915 2.655-.448.37-1.03.668-1.89 0-.346-.27-1.202-1.16-1.578-1.671Z" fill="url(#x)"/><path d="M4.577 11.908c-1.025-1.394.457-2.355 1.29-2.113.394.243 1.004.854 1.263 1.129 1.652 1.61 1.377 2.108.915 2.655-.448.37-1.03.668-1.89 0-.346-.27-1.202-1.16-1.578-1.671Z" fill="url(#y)"/><path d="M4.577 11.908c-1.025-1.394.457-2.355 1.29-2.113.394.243 1.004.854 1.263 1.129 1.652 1.61 1.377 2.108.915 2.655-.448.37-1.03.668-1.89 0-.346-.27-1.202-1.16-1.578-1.671Z" fill="url(#z)"/><path d="M4.577 11.908c-1.025-1.394.457-2.355 1.29-2.113.394.243 1.004.854 1.263 1.129 1.652 1.61 1.377 2.108.915 2.655-.448.37-1.03.668-1.89 0-.346-.27-1.202-1.16-1.578-1.671Z" fill="url(#A)"/><path d="M11.36 3.594c.75 1.653 1.669 3.68 2.359 4.486.135-.313.12-.837.274-2.119.14-1.155 1.093-1.265 1.503-1.183.905.189 1.18 1.106 1.15 1.444-.047.539-.05.52-.149 1.825-.144 1.906.592 3.345.66 4.978 0 3.076-2.697 4.588-4.583 4.588-1.51 0-3.021-.966-3.587-1.45l-2.831-2.585c-.347-.27-1.203-1.159-1.58-1.67-1.024-1.394.458-2.355 1.291-2.113-.065-.05-.46-.693-.65-1.007-.508-1.02 0-1.7.376-1.887.852-.424 1.478.053 1.675.313-.075-.128-.312-.647-.693-1.599-.381-.95.233-1.538.587-1.713.77-.357 1.502.096 1.685.5l.784 1.723a19.964 19.964 0 0 1-.548-1.511c-.202-.838.284-1.412.592-1.56.429-.205 1.322-.259 1.675.52l.01.02Z" fill="url(#B)"/><path d="M11.36 3.594c.75 1.653 1.669 3.68 2.359 4.486.135-.313.12-.837.274-2.119.14-1.155 1.093-1.265 1.503-1.183.905.189 1.18 1.106 1.15 1.444-.047.539-.05.52-.149 1.825-.144 1.906.592 3.345.66 4.978 0 3.076-2.697 4.588-4.583 4.588-1.51 0-3.021-.966-3.587-1.45l-2.831-2.585c-.347-.27-1.203-1.159-1.58-1.67-1.024-1.394.458-2.355 1.291-2.113-.065-.05-.46-.693-.65-1.007-.508-1.02 0-1.7.376-1.887.852-.424 1.478.053 1.675.313-.075-.128-.312-.647-.693-1.599-.381-.95.233-1.538.587-1.713.77-.357 1.502.096 1.685.5l.784 1.723a19.964 19.964 0 0 1-.548-1.511c-.202-.838.284-1.412.592-1.56.429-.205 1.322-.259 1.675.52l.01.02Z" fill="url(#C)"/><path d="M11.36 3.594c.75 1.653 1.669 3.68 2.359 4.486.135-.313.12-.837.274-2.119.14-1.155 1.093-1.265 1.503-1.183.905.189 1.18 1.106 1.15 1.444-.047.539-.05.52-.149 1.825-.144 1.906.592 3.345.66 4.978 0 3.076-2.697 4.588-4.583 4.588-1.51 0-3.021-.966-3.587-1.45l-2.831-2.585c-.347-.27-1.203-1.159-1.58-1.67-1.024-1.394.458-2.355 1.291-2.113-.065-.05-.46-.693-.65-1.007-.508-1.02 0-1.7.376-1.887.852-.424 1.478.053 1.675.313-.075-.128-.312-.647-.693-1.599-.381-.95.233-1.538.587-1.713.77-.357 1.502.096 1.685.5l.784 1.723a19.964 19.964 0 0 1-.548-1.511c-.202-.838.284-1.412.592-1.56.429-.205 1.322-.259 1.675.52l.01.02Z" fill="url(#D)"/><path d="M12.404 5.806c.463.945.925 1.792 1.315 2.256.04.413.076.648.175 1.004-.78-.78-1.534-2.484-1.49-3.26Z" fill="url(#E)"/><path fill-rule="evenodd" clip-rule="evenodd" d="M1.365 9.645a.333.333 0 0 1 .332.333c0 .554.224 1.296.708 1.896.474.59 1.195 1.035 2.205 1.035a.332.332 0 1 1 0 .664c-1.233 0-2.135-.554-2.722-1.282-.578-.717-.855-1.607-.855-2.314a.333.333 0 0 1 .332-.332Z" fill="url(#F)"/><path fill-rule="evenodd" clip-rule="evenodd" d="M1.365 9.645a.333.333 0 0 1 .332.333c0 .554.224 1.296.708 1.896.474.59 1.195 1.035 2.205 1.035a.332.332 0 1 1 0 .664c-1.233 0-2.135-.554-2.722-1.282-.578-.717-.855-1.607-.855-2.314a.333.333 0 0 1 .332-.332Z" fill="url(#G)"/><path fill-rule="evenodd" clip-rule="evenodd" d="M1.365 9.645a.333.333 0 0 1 .332.333c0 .554.224 1.296.708 1.896.474.59 1.195 1.035 2.205 1.035a.332.332 0 1 1 0 .664c-1.233 0-2.135-.554-2.722-1.282-.578-.717-.855-1.607-.855-2.314a.333.333 0 0 1 .332-.332Z" fill="url(#H)"/><path fill-rule="evenodd" clip-rule="evenodd" d="M.332 10.83a.333.333 0 0 1 .333.332c0 1.177.88 2.749 2.732 2.749a.332.332 0 0 1 0 .664C1.07 14.575 0 12.585 0 11.162a.333.333 0 0 1 .332-.332Z" fill="url(#I)"/><path fill-rule="evenodd" clip-rule="evenodd" d="M.332 10.83a.333.333 0 0 1 .333.332c0 1.177.88 2.749 2.732 2.749a.332.332 0 0 1 0 .664C1.07 14.575 0 12.585 0 11.162a.333.333 0 0 1 .332-.332Z" fill="url(#J)"/><path fill-rule="evenodd" clip-rule="evenodd" d="M12.767 5.303a.333.333 0 0 1-.334-.33c-.003-.554-.233-1.295-.72-1.891-.478-.587-1.201-1.028-2.212-1.022a.333.333 0 0 1-.004-.664c1.233-.008 2.14.542 2.73 1.266.583.713.865 1.601.87 2.307a.333.333 0 0 1-.33.334Z" fill="url(#K)"/><path fill-rule="evenodd" clip-rule="evenodd" d="M12.767 5.303a.333.333 0 0 1-.334-.33c-.003-.554-.233-1.295-.72-1.891-.478-.587-1.201-1.028-2.212-1.022a.333.333 0 0 1-.004-.664c1.233-.008 2.14.542 2.73 1.266.583.713.865 1.601.87 2.307a.333.333 0 0 1-.33.334Z" fill="url(#L)"/><path fill-rule="evenodd" clip-rule="evenodd" d="M13.793 4.113a.333.333 0 0 1-.334-.33c-.008-1.177-.9-2.744-2.75-2.731a.332.332 0 1 1-.005-.664c2.328-.016 3.41 1.968 3.418 3.39a.332.332 0 0 1-.329.335Z" fill="url(#M)"/><path fill-rule="evenodd" clip-rule="evenodd" d="M13.793 4.113a.333.333 0 0 1-.334-.33c-.008-1.177-.9-2.744-2.75-2.731a.332.332 0 1 1-.005-.664c2.328-.016 3.41 1.968 3.418 3.39a.332.332 0 0 1-.329.335Z" fill="url(#N)"/><g filter="url(#O)"><path d="M12.703 8.123c-1.193.481-3.893 2.062-4.686 5.584" stroke="#FFC339" stroke-width="1.232" stroke-linecap="round"/></g><defs><radialGradient id="a" cx="0" cy="0" r="1" gradientUnits="userSpaceOnUse" gradientTransform="matrix(6.46397 11.24146 -7.34392 4.22284 10.692 7.757)"><stop offset=".003" stop-color="#FFC133"/><stop offset=".698" stop-color="#FFC53F"/><stop offset=".797" stop-color="#FFAD3E"/><stop offset=".945" stop-color="#EC7D58"/></radialGradient><radialGradient id="b" cx="0" cy="0" r="1" gradientUnits="userSpaceOnUse" gradientTransform="matrix(-.40426 -7.68291 2.9433 -.15487 17.157 10.606)"><stop offset=".003" stop-color="#FFE849"/><stop offset="1" stop-color="#FFE647" stop-opacity="0"/></radialGradient><radialGradient id="c" cx="0" cy="0" r="1" gradientUnits="userSpaceOnUse" gradientTransform="matrix(-.69294 4.06156 -1.55598 -.26546 16.233 5.1)"><stop offset=".003" stop-color="#FFE849"/><stop offset="1" stop-color="#FFE647" stop-opacity="0"/></radialGradient><radialGradient id="d" cx="0" cy="0" r="1" gradientUnits="userSpaceOnUse" gradientTransform="matrix(1.66649 0 0 6.75825 13.72 7.581)"><stop stop-color="#EE9F2C"/><stop offset="1" stop-color="#EE9F2C" stop-opacity="0"/></radialGradient><radialGradient id="e" cx="0" cy="0" r="1" gradientUnits="userSpaceOnUse" gradientTransform="matrix(-.19984 -2.79783 1.9433 -.1388 14.45 10.202)"><stop stop-color="#FFC93D"/><stop offset="1" stop-color="#FFC33A" stop-opacity="0"/></radialGradient><radialGradient id="f" cx="0" cy="0" r="1" gradientUnits="userSpaceOnUse" gradientTransform="rotate(151.024 5.674 4.636) scale(2.94846 5.92287)"><stop offset=".563" stop-color="#F09D2E" stop-opacity="0"/><stop offset="1" stop-color="#F09D2E"/></radialGradient><radialGradient id="h" cx="0" cy="0" r="1" gradientUnits="userSpaceOnUse" gradientTransform="matrix(1.9249 -.46198 1.0216 4.25668 12.267 3.6)"><stop stop-color="#FFEC4C"/><stop offset="1" stop-color="#FFEC4C" stop-opacity="0"/></radialGradient><radialGradient id="i" cx="0" cy="0" r="1" gradientUnits="userSpaceOnUse" gradientTransform="rotate(33.306 -.368 16.565) scale(1.93258 1.49834)"><stop stop-color="#D99F2B"/><stop offset="1" stop-color="#D99F2B" stop-opacity="0"/></radialGradient><radialGradient id="k" cx="0" cy="0" r="1" gradientUnits="userSpaceOnUse" gradientTransform="rotate(149.148 4.106 4.821) scale(2.84218 5.93108)"><stop offset=".563" stop-color="#F09D2E" stop-opacity="0"/><stop offset="1" stop-color="#F09D2E"/></radialGradient><radialGradient id="m" cx="0" cy="0" r="1" gradientUnits="userSpaceOnUse" gradientTransform="matrix(1.5657 -1.05182 3.20227 4.76676 9.776 5.043)"><stop stop-color="#FFEC4C"/><stop offset="1" stop-color="#FFEC4C" stop-opacity="0"/></radialGradient><radialGradient id="n" cx="0" cy="0" r="1" gradientUnits="userSpaceOnUse" gradientTransform="matrix(2.1559 -1.00095 4.57045 9.84404 8.34 7.372)"><stop offset=".598" stop-color="#F09D2E" stop-opacity="0"/><stop offset="1" stop-color="#F09D2E"/></radialGradient><radialGradient id="o" cx="0" cy="0" r="1" gradientUnits="userSpaceOnUse" gradientTransform="rotate(32.601 -3.358 12.46) scale(1.96502 1.56615)"><stop stop-color="#D99F2B"/><stop offset="1" stop-color="#D99F2B" stop-opacity="0"/></radialGradient><radialGradient id="q" cx="0" cy="0" r="1" gradientUnits="userSpaceOnUse" gradientTransform="rotate(137.351 2.409 6.31) scale(2.35459 4.61075)"><stop offset=".563" stop-color="#F09D2E" stop-opacity="0"/><stop offset="1" stop-color="#F09D2E"/></radialGradient><radialGradient id="s" cx="0" cy="0" r="1" gradientUnits="userSpaceOnUse" gradientTransform="matrix(1.75216 -.3819 .80898 3.71157 7.878 7.298)"><stop stop-color="#FFEC4C"/><stop offset="1" stop-color="#FFEC4C" stop-opacity="0"/></radialGradient><radialGradient id="t" cx="0" cy="0" r="1" gradientUnits="userSpaceOnUse" gradientTransform="matrix(1.90476 -1.61061 8.23402 9.73779 6.783 9.753)"><stop offset=".598" stop-color="#F09D2E" stop-opacity="0"/><stop offset="1" stop-color="#F09D2E"/></radialGradient><radialGradient id="u" cx="0" cy="0" r="1" gradientUnits="userSpaceOnUse" gradientTransform="matrix(1.57003 .8884 -.66864 1.18165 4.738 6.732)"><stop stop-color="#D99F2B"/><stop offset="1" stop-color="#D99F2B" stop-opacity="0"/></radialGradient><radialGradient id="v" cx="0" cy="0" r="1" gradientUnits="userSpaceOnUse" gradientTransform="matrix(.71222 -.73147 3.30265 3.21574 5.684 10.279)"><stop stop-color="#A85300"/><stop offset=".825" stop-color="#A85300" stop-opacity="0"/></radialGradient><radialGradient id="w" cx="0" cy="0" r="1" gradientUnits="userSpaceOnUse" gradientTransform="rotate(143.369 1.98 7.311) scale(2.31484 4.35549)"><stop offset=".563" stop-color="#F09D2E" stop-opacity="0"/><stop offset="1" stop-color="#F09D2E"/></radialGradient><radialGradient id="x" cx="0" cy="0" r="1" gradientUnits="userSpaceOnUse" gradientTransform="rotate(-9.978 62.35 -36.76) scale(1.90831 3.31521)"><stop stop-color="#FFEC4C"/><stop offset="1" stop-color="#FFEC4C" stop-opacity="0"/></radialGradient><radialGradient id="y" cx="0" cy="0" r="1" gradientUnits="userSpaceOnUse" gradientTransform="rotate(-34.314 23.106 -3.753) scale(2.47364 11.9425)"><stop offset=".598" stop-color="#F09D2E" stop-opacity="0"/><stop offset="1" stop-color="#F09D2E"/></radialGradient><radialGradient id="z" cx="0" cy="0" r="1" gradientUnits="userSpaceOnUse" gradientTransform="matrix(1.68409 .76918 -.51041 1.11752 3.943 9.758)"><stop stop-color="#D99F2B"/><stop offset="1" stop-color="#D99F2B" stop-opacity="0"/></radialGradient><radialGradient id="B" cx="0" cy="0" r="1" gradientUnits="userSpaceOnUse" gradientTransform="matrix(-6.7372 8.3156 -13.4481 -10.8955 13.576 6.949)"><stop offset=".872" stop-color="#F6814F" stop-opacity="0"/><stop offset="1" stop-color="#F7814F"/></radialGradient><radialGradient id="C" cx="0" cy="0" r="1" gradientUnits="userSpaceOnUse" gradientTransform="rotate(76.293 1.175 10.753) scale(11.3729 12.4785)"><stop offset=".853" stop-color="#F6814F" stop-opacity="0"/><stop offset="1" stop-color="#F7814F"/></radialGradient><radialGradient id="D" cx="0" cy="0" r="1" gradientUnits="userSpaceOnUse" gradientTransform="rotate(64.44 3.647 13.134) scale(1.96303 1.75001)"><stop stop-color="#D99F2B"/><stop offset="1" stop-color="#D99F2B" stop-opacity="0"/></radialGradient><radialGradient id="E" cx="0" cy="0" r="1" gradientUnits="userSpaceOnUse" gradientTransform="rotate(149.254 5.857 5.875) scale(.74754 2.31319)"><stop offset=".201" stop-color="#B4813D"/><stop offset="1" stop-color="#B4813D" stop-opacity="0"/></radialGradient><radialGradient id="F" cx="0" cy="0" r="1" gradientUnits="userSpaceOnUse" gradientTransform="rotate(62.071 -7.244 6.439) scale(3.27214 4.85273)"><stop stop-color="#419FFD"/><stop offset="1" stop-color="#4B6DCB"/></radialGradient><radialGradient id="G" cx="0" cy="0" r="1" gradientUnits="userSpaceOnUse" gradientTransform="matrix(.46198 .01925 -.04051 .97224 .912 10.067)"><stop stop-color="#5486C7"/><stop offset="1" stop-color="#5486C7" stop-opacity="0"/></radialGradient><radialGradient id="H" cx="0" cy="0" r="1" gradientUnits="userSpaceOnUse" gradientTransform="matrix(-.17324 .4331 -1.27393 -.50956 4.377 12.704)"><stop stop-color="#5486C7"/><stop offset="1" stop-color="#5486C7" stop-opacity="0"/></radialGradient><radialGradient id="I" cx="0" cy="0" r="1" gradientUnits="userSpaceOnUse" gradientTransform="rotate(94.712 -4.27 6.722) scale(2.58813 4.35168)"><stop stop-color="#419FFD"/><stop offset="1" stop-color="#4B6DCB"/></radialGradient><radialGradient id="J" cx="0" cy="0" r="1" gradientUnits="userSpaceOnUse" gradientTransform="rotate(2.385 -269.82 2.85) scale(.44106 .92777)"><stop stop-color="#5486C7"/><stop offset="1" stop-color="#5486C7" stop-opacity="0"/></radialGradient><radialGradient id="K" cx="0" cy="0" r="1" gradientUnits="userSpaceOnUse" gradientTransform="matrix(1.36645 2.38557 -3.5379 2.0265 10.224 .68)"><stop stop-color="#419FFD"/><stop offset="1" stop-color="#4B6DCB"/></radialGradient><radialGradient id="L" cx="0" cy="0" r="1" gradientUnits="userSpaceOnUse" gradientTransform="matrix(.37428 .12786 -.2058 .60243 9.092 1.675)"><stop stop-color="#4D8AC1"/><stop offset="1" stop-color="#4D8AC1" stop-opacity="0"/></radialGradient><radialGradient id="M" cx="0" cy="0" r="1" gradientUnits="userSpaceOnUse" gradientTransform="rotate(60.69 5.944 9.574) scale(3.41533 5.06639)"><stop stop-color="#419FFD"/><stop offset="1" stop-color="#4B6DCB"/></radialGradient><radialGradient id="N" cx="0" cy="0" r="1" gradientUnits="userSpaceOnUse" gradientTransform="matrix(.35702 .12191 -.19615 .57443 10.303 .654)"><stop stop-color="#4D8AC1"/><stop offset="1" stop-color="#4D8AC1" stop-opacity="0"/></radialGradient><linearGradient id="g" x1="11.377" y1="8.964" x2="11.377" y2="7.372" gradientUnits="userSpaceOnUse"><stop stop-color="#FFC337"/><stop offset="1" stop-color="#FFC337" stop-opacity="0"/></linearGradient><linearGradient id="j" x1="9.342" y1="6.814" x2="10.304" y2="6.352" gradientUnits="userSpaceOnUse"><stop stop-color="#A85300"/><stop offset=".825" stop-color="#A85300" stop-opacity="0"/></linearGradient><linearGradient id="l" x1="8.679" y1="9.938" x2="8.679" y2="8.313" gradientUnits="userSpaceOnUse"><stop stop-color="#FFC337"/><stop offset="1" stop-color="#FFC337" stop-opacity="0"/></linearGradient><linearGradient id="p" x1="7.05" y1="7.757" x2="7.691" y2="7.309" gradientUnits="userSpaceOnUse"><stop stop-color="#A85300"/><stop offset=".825" stop-color="#A85300" stop-opacity="0"/></linearGradient><linearGradient id="r" x1="7.104" y1="11.905" x2="7.104" y2="10.542" gradientUnits="userSpaceOnUse"><stop stop-color="#FFC337"/><stop offset="1" stop-color="#FFC337" stop-opacity="0"/></linearGradient><linearGradient id="A" x1="8.033" y1="16.227" x2="6.482" y2="13.056" gradientUnits="userSpaceOnUse"><stop stop-color="#FFC337"/><stop offset="1" stop-color="#FFC337" stop-opacity="0"/></linearGradient><filter id="O" x="6.168" y="6.275" width="8.383" height="9.279" filterUnits="userSpaceOnUse" color-interpolation-filters="sRGB"><feFlood flood-opacity="0" result="BackgroundImageFix"/><feBlend in="SourceGraphic" in2="BackgroundImageFix" result="shape"/><feGaussianBlur stdDeviation=".616" result="effect1_foregroundBlur_755_77"/></filter></defs></svg>