<svg width="29" height="29" fill="none" xmlns="http://www.w3.org/2000/svg"><path d="M28.074 14.617c0 7.505-6.054 13.586-13.519 13.586-7.464 0-13.518-6.081-13.518-13.586S7.09 1.03 14.555 1.03c7.465 0 13.519 6.082 13.519 13.587Z" stroke="#000" stroke-width=".687"/><path d="M17.832 11.76a.777.777 0 0 0 .775-.779.777.777 0 0 0-.775-.778.777.777 0 0 0-.775.778c0 .43.347.78.775.78ZM14.385 11.111c-.656 0-1.297.196-1.843.562a3.347 3.347 0 0 0-.503 5.127 3.312 3.312 0 0 0 3.615.723 3.32 3.32 0 0 0 1.488-1.228 3.344 3.344 0 0 0-.412-4.208 3.308 3.308 0 0 0-2.345-.976Zm0 5.496a2.145 2.145 0 0 1-1.99-1.335 2.173 2.173 0 0 1 .468-2.358 2.15 2.15 0 0 1 2.346-.469 2.17 2.17 0 0 1 .698 3.528 2.147 2.147 0 0 1-1.522.634Z" fill="#000"/><path d="M14.384 9.124c1.724 0 1.929.006 2.61.038.41.005.815.08 1.199.223a2.138 2.138 0 0 1 1.226 1.232c.142.386.217.793.222 1.205.032.684.038.89.038 2.623s-.006 1.938-.038 2.622a3.61 3.61 0 0 1-.222 1.205 2.15 2.15 0 0 1-1.226 1.232c-.384.143-.79.218-1.2.223-.68.032-.884.038-2.609.038-1.724 0-1.929-.006-2.61-.038a3.558 3.558 0 0 1-1.199-.223 2.138 2.138 0 0 1-1.226-1.232 3.608 3.608 0 0 1-.222-1.205c-.031-.684-.038-.89-.038-2.623 0-1.732.007-1.938.038-2.622.005-.411.08-.819.222-1.205a2.15 2.15 0 0 1 1.226-1.232 3.56 3.56 0 0 1 1.2-.223c.68-.032.885-.038 2.61-.038Zm0-1.17c-1.754 0-1.974.008-2.663.04a4.72 4.72 0 0 0-1.567.301 3.3 3.3 0 0 0-1.89 1.899 4.783 4.783 0 0 0-.3 1.575c-.03.692-.038.912-.038 2.675 0 1.764.007 1.984.039 2.676.01.539.112 1.071.3 1.575a3.32 3.32 0 0 0 1.889 1.899 4.718 4.718 0 0 0 1.568.301c.689.032.908.04 2.662.04s1.974-.008 2.663-.04a4.717 4.717 0 0 0 1.568-.301 3.3 3.3 0 0 0 1.889-1.899c.188-.504.29-1.037.3-1.575.031-.692.039-.912.039-2.676 0-1.763-.008-1.983-.04-2.676a4.784 4.784 0 0 0-.3-1.574 3.321 3.321 0 0 0-1.889-1.899 4.72 4.72 0 0 0-1.567-.3c-.69-.033-.908-.04-2.663-.04Z" fill="#000"/></svg>