<svg width="29" height="29" fill="none" xmlns="http://www.w3.org/2000/svg"><path d="M28.22 14.617c0 7.505-6.054 13.586-13.518 13.586-7.465 0-13.519-6.081-13.519-13.586S7.237 1.03 14.702 1.03c7.464 0 13.518 6.082 13.518 13.587Z" stroke="#000" stroke-width=".687"/><path fill-rule="evenodd" clip-rule="evenodd" d="M15.587 19.987v-.507c0-1.306-.01-2.617.01-3.923 0-.354.042-.722.142-1.062.219-.746.84-1.115 1.662-1.048.665.053 1.121.508 1.24 1.273.043.282.062.574.062.856.004 1.306 0 2.617 0 3.923v.469h2.654c.01-.115.02-.196.02-.283 0-1.78.004-3.563 0-5.343 0-.316-.039-.632-.1-.943-.252-1.305-1.145-2.186-2.394-2.372-1.25-.187-2.318.129-3.13 1.153-.028.033-.07.057-.18.148v-1.057h-2.527v8.716h2.546-.005Zm-6.957-.02h2.636v-8.701H8.63v8.702Zm2.897-11.49c0-.895-.717-1.612-1.605-1.607-.87.004-1.563.708-1.572 1.593a1.595 1.595 0 0 0 1.581 1.63c.883 0 1.6-.717 1.6-1.616h-.004Z" fill="#000"/></svg>