<svg width="19" height="20" fill="none" xmlns="http://www.w3.org/2000/svg"><path d="m9.5 15.819-4.956 3.774a.803.803 0 0 1-.525.159 1.14 1.14 0 0 1-.485-.15.81.81 0 0 1-.335-.384.69.69 0 0 1-.005-.545l1.892-6.218L.38 9.056a.754.754 0 0 1-.347-.434.806.806 0 0 1 .026-.525.963.963 0 0 1 .305-.421.778.778 0 0 1 .494-.159h5.91L8.7 1.17c.074-.193.181-.345.32-.455A.754.754 0 0 1 9.5.552c.182 0 .341.054.48.163.14.11.247.262.321.455l1.932 6.348h5.91c.194 0 .359.053.495.159a.946.946 0 0 1 .304.42.82.82 0 0 1 .027.526.763.763 0 0 1-.347.436l-4.707 3.396 1.892 6.218a.69.69 0 0 1-.005.545.82.82 0 0 1-.335.385 1.11 1.11 0 0 1-.485.149.815.815 0 0 1-.526-.16L9.5 15.82Z" fill="#FF6A07"/></svg>