<svg width="159" height="99" fill="none" xmlns="http://www.w3.org/2000/svg"><path d="M133.369 7.36 81.627 19.154 75 23.249 133.369 7.36Z" fill="#FF6A07"/><path opacity=".2" d="M81.627 19.154 75 23.249 133.369 7.36" fill="#000"/><path d="M133.369 7.36 81.627 19.154l4.87 3.584L133.37 7.36Z" fill="#FF6A07"/><path d="M106.672 17.556 80.715 16.49a2.376 2.376 0 0 1-2.27-2.465l.483-11.753a2.376 2.376 0 0 1 2.465-2.27l25.956 1.066a2.377 2.377 0 0 1 2.27 2.465l-.483 11.753a2.376 2.376 0 0 1-2.464 2.27Z" fill="#FF6A07"/><path opacity=".8" d="M106.672 17.556 80.715 16.49a2.376 2.376 0 0 1-2.27-2.465l.483-11.753a2.376 2.376 0 0 1 2.465-2.27l25.956 1.066a2.377 2.377 0 0 1 2.27 2.465l-.483 11.753a2.376 2.376 0 0 1-2.464 2.27Z" fill="#fff"/><path opacity=".4" d="M93.918 11.92a.37.37 0 0 1-.209-.064L80.293 2.597a.368.368 0 0 1 .418-.605l13.225 9.127 13.93-8.01a.368.368 0 1 1 .366.637l-14.13 8.127a.385.385 0 0 1-.184.048ZM107.567 15.507a.365.365 0 0 1-.209-.066l-7.69-5.344a.367.367 0 1 1 .42-.604l7.689 5.345a.367.367 0 0 1-.21.669ZM80.022 14.375a.367.367 0 0 1-.184-.685l8.102-4.696a.367.367 0 1 1 .368.636l-8.103 4.695a.353.353 0 0 1-.183.05Z" fill="#FF6A07"/><path d="M133.369 7.36 89.01 16.428l-2.512 6.31L133.369 7.36Z" fill="#FF6A07"/><path opacity=".2" d="M133.369 7.36 89.01 16.428l-2.512 6.31L133.369 7.36Z" fill="#000"/><path d="m133.371 7.36-44.36 9.068 13.97 5.065 30.39-14.133ZM83.732 24.906a.5.5 0 0 1-.114-.986 22.354 22.354 0 0 0 3.258-1.031.501.501 0 0 1 .375.927 23.424 23.424 0 0 1-3.404 1.077.5.5 0 0 1-.115.013ZM46.151 197.655a.5.5 0 0 1-.024-1 85.915 85.915 0 0 0 7.009-.633.5.5 0 1 1 .131.991 87.014 87.014 0 0 1-7.09.641l-.026.001Zm14.023-1.845a.5.5 0 0 1-.105-.989 76.103 76.103 0 0 0 6.798-1.794.5.5 0 0 1 .301.953 77.349 77.349 0 0 1-6.888 1.818.437.437 0 0 1-.106.012Zm13.456-4.321a.499.499 0 0 1-.208-.955c1.824-.833 3.468-1.727 4.887-2.658.396-.26.792-.524 1.185-.793a.5.5 0 1 1 .564.826c-.398.272-.799.539-1.2.803-1.461.958-3.15 1.877-5.02 2.731a.483.483 0 0 1-.208.046Zm11.766-7.79a.5.5 0 0 1-.327-.878c1.856-1.608 3.51-3.279 4.914-4.968a.5.5 0 0 1 .769.639c-1.439 1.731-3.131 3.441-5.028 5.085a.502.502 0 0 1-.328.122Zm8.89-10.901a.5.5 0 0 1-.445-.728c.323-.63.623-1.275.892-1.918a30.765 30.765 0 0 0 1.503-4.6.5.5 0 1 1 .971.237 31.89 31.89 0 0 1-1.552 4.75c-.279.666-.59 1.335-.924 1.987a.498.498 0 0 1-.445.272Zm3.471-13.62-.034-.001a.5.5 0 0 1-.465-.532c.092-1.364.137-2.802.137-4.397 0-.875-.014-1.752-.036-2.631a.5.5 0 0 1 .487-.513c.278-.027.506.21.513.487.023.887.037 1.773.037 2.656a65.66 65.66 0 0 1-.139 4.464.502.502 0 0 1-.5.467Zm-.192-14.145a.5.5 0 0 1-.499-.478c-.091-2.034-.176-4.216-.176-6.399l.003-.702c.002-.276.193-.516.504-.496a.5.5 0 0 1 .496.504l-.003.695c0 2.162.084 4.332.175 6.354a.5.5 0 0 1-.477.522h-.023Zm42.756-6.16c-.909 0-1.799-.023-2.654-.061a.5.5 0 1 1 .043-.999c.841.037 1.716.06 2.611.06 1.569 0 3.044-.074 4.385-.218a.5.5 0 0 1 .108.994 42.34 42.34 0 0 1-4.493.224Zm-9.695-.509-.039-.001a275.44 275.44 0 0 1-7.062-.635.5.5 0 0 1-.446-.549.495.495 0 0 1 .549-.446c2.334.24 4.701.453 7.036.633a.5.5 0 0 1-.038.998Zm20.972-1.432a.5.5 0 0 1-.207-.956c2.245-1.017 3.956-2.469 5.085-4.317a.5.5 0 1 1 .854.522c-1.236 2.022-3.095 3.605-5.526 4.706a.488.488 0 0 1-.206.045Zm-35.05-.018a.473.473 0 0 1-.065-.004 273.065 273.065 0 0 1-7.02-1 .5.5 0 1 1 .154-.988c2.32.361 4.674.696 6.994.996a.5.5 0 0 1-.063.996Zm-13.986-2.177a.547.547 0 0 1-.09-.008 273.826 273.826 0 0 1-6.959-1.361.5.5 0 0 1 .205-.979c2.297.48 4.629.936 6.933 1.356a.5.5 0 0 1-.089.992Zm-13.854-2.895a.466.466 0 0 1-.116-.014 273.102 273.102 0 0 1-6.879-1.718.5.5 0 1 1 .255-.967 274.38 274.38 0 0 0 6.854 1.712.5.5 0 0 1-.114.987Zm9.179-.939a.5.5 0 0 1-.495-.573c.369-2.471.957-4.811 1.747-6.953a.501.501 0 0 1 .938.346c-.767 2.079-1.337 4.351-1.696 6.755a.5.5 0 0 1-.494.425Zm-22.865-2.669a.52.52 0 0 1-.14-.02 268.819 268.819 0 0 1-6.781-2.073.5.5 0 0 1 .305-.953c2.233.715 4.506 1.409 6.756 2.065a.5.5 0 0 1-.14.981Zm83.308-2.579a.5.5 0 0 1-.49-.404c-.378-1.943-1.57-3.829-3.544-5.608a.5.5 0 1 1 .669-.743c2.138 1.926 3.435 3.999 3.856 6.16a.5.5 0 0 1-.491.595Zm-96.785-1.747a.49.49 0 0 1-.167-.029 193.169 193.169 0 0 1-6.647-2.492.5.5 0 0 1 .368-.93c2.123.842 4.348 1.676 6.612 2.479a.5.5 0 0 1-.166.972Zm-13.155-5.231a.497.497 0 0 1-.204-.044 144.985 144.985 0 0 1-6.413-3.052.5.5 0 0 1 .452-.892 144.664 144.664 0 0 0 6.369 3.031.5.5 0 0 1-.204.957Zm54.517-.863a.5.5 0 0 1-.402-.797c1.363-1.844 2.963-3.39 4.757-4.594.171-.115.344-.227.518-.335a.5.5 0 1 1 .529.849 17.03 17.03 0 0 0-.49.317c-1.698 1.14-3.215 2.607-4.51 4.358a.498.498 0 0 1-.402.202Zm45.872-2.001a.5.5 0 0 1-.238-.06 74.23 74.23 0 0 0-2.441-1.258 49.678 49.678 0 0 0-3.906-1.727.5.5 0 0 1 .365-.931 50.739 50.739 0 0 1 3.985 1.762c.789.39 1.625.814 2.474 1.275a.5.5 0 0 1-.239.939Zm-113.001-3.552a.499.499 0 0 1-.251-.068 109.584 109.584 0 0 1-6.031-3.762.501.501 0 0 1 .557-.831 109.56 109.56 0 0 0 5.976 3.728.5.5 0 0 1-.251.933Zm99.849-1.569a.516.516 0 0 1-.116-.013 49.953 49.953 0 0 0-6.909-1.134.5.5 0 0 1 .092-.996c2.36.218 4.731.607 7.048 1.156a.5.5 0 0 1-.115.987Zm-21.052-.326a.5.5 0 0 1-.117-.986c1.637-.396 3.384-.674 5.339-.849a46.724 46.724 0 0 1 1.755-.125.5.5 0 1 1 .053.999 47.05 47.05 0 0 0-1.718.122c-1.906.17-3.605.44-5.193.825a.544.544 0 0 1-.119.014Zm-90.529-6.003a.495.495 0 0 1-.308-.107 84.527 84.527 0 0 1-5.413-4.621.5.5 0 0 1 .682-.732 83.42 83.42 0 0 0 5.348 4.566.5.5 0 0 1-.309.894Zm-10.323-9.654a.497.497 0 0 1-.376-.17 61.053 61.053 0 0 1-4.393-5.619.5.5 0 1 1 .823-.568 60.163 60.163 0 0 0 4.322 5.527.501.501 0 0 1-.376.83ZM5.72 83.075a.501.501 0 0 1-.445-.271 50.607 50.607 0 0 1-2.828-6.558.5.5 0 0 1 .944-.329 49.616 49.616 0 0 0 2.773 6.428.5.5 0 0 1-.444.73ZM1.118 69.746a.5.5 0 0 1-.492-.412A38.297 38.297 0 0 1 0 62.408l.001-.205a.496.496 0 0 1 .502-.498.5.5 0 0 1 .498.502L1 62.408a37.385 37.385 0 0 0 .61 6.75.499.499 0 0 1-.492.588Zm.05-14.077a.5.5 0 0 1-.492-.59 41.872 41.872 0 0 1 1.895-6.9.5.5 0 1 1 .938.346A40.812 40.812 0 0 0 1.66 55.26a.502.502 0 0 1-.492.409ZM6.05 42.456a.499.499 0 0 1-.432-.752 39.322 39.322 0 0 1 4.146-5.836.5.5 0 1 1 .758.652 38.347 38.347 0 0 0-4.041 5.687.495.495 0 0 1-.431.249Zm9.203-10.641a.499.499 0 0 1-.307-.895 37.853 37.853 0 0 1 6.052-3.826.5.5 0 0 1 .453.891 36.823 36.823 0 0 0-5.892 3.724.493.493 0 0 1-.306.106Zm61.452-6.205h-.007c-2.121-.028-4.381-.227-7.111-.626a.5.5 0 0 1 .145-.989c2.685.393 4.903.589 6.979.615a.5.5 0 0 1-.006 1Zm-48.941-.259a.5.5 0 0 1-.155-.976 61.136 61.136 0 0 1 6.904-1.792.5.5 0 0 1 .197.981 59.97 59.97 0 0 0-6.79 1.762.503.503 0 0 1-.156.025Zm34.922-1.572a.582.582 0 0 1-.092-.008c-2.146-.399-4.578-.852-6.956-1.189a.5.5 0 0 1 .14-.99c2.399.34 4.843.795 6.999 1.196a.5.5 0 0 1-.091.991Zm-21.082-1.288a.5.5 0 0 1-.056-.997c1.273-.146 2.628-.277 4.026-.388.889-.07 1.818-.106 2.763-.106l.328.002a.5.5 0 0 1 .496.505c-.003.276-.264.492-.504.495l-.32-.002c-.919 0-1.822.035-2.684.103-1.387.11-2.729.24-3.991.385a.578.578 0 0 1-.058.003Z" fill="#FF6A07"/><g opacity=".6" fill="#fff"><path d="M83.732 24.906a.5.5 0 0 1-.114-.986 22.354 22.354 0 0 0 3.258-1.031.501.501 0 0 1 .375.927 23.424 23.424 0 0 1-3.404 1.077.5.5 0 0 1-.115.013ZM46.151 197.655a.5.5 0 0 1-.024-1 85.915 85.915 0 0 0 7.009-.633.5.5 0 1 1 .131.991 87.014 87.014 0 0 1-7.09.641l-.026.001Zm14.023-1.845a.5.5 0 0 1-.105-.989 76.103 76.103 0 0 0 6.798-1.794.5.5 0 0 1 .301.953 77.349 77.349 0 0 1-6.888 1.818.437.437 0 0 1-.106.012Zm13.456-4.321a.499.499 0 0 1-.208-.955c1.824-.833 3.468-1.727 4.887-2.658.396-.26.792-.524 1.185-.793a.5.5 0 1 1 .564.826c-.398.272-.799.539-1.2.803-1.461.958-3.15 1.877-5.02 2.731a.483.483 0 0 1-.208.046Zm11.766-7.79a.5.5 0 0 1-.327-.878c1.856-1.608 3.51-3.279 4.914-4.968a.5.5 0 0 1 .769.639c-1.439 1.731-3.131 3.441-5.028 5.085a.502.502 0 0 1-.328.122Zm8.89-10.901a.5.5 0 0 1-.445-.728c.323-.63.623-1.275.892-1.918a30.765 30.765 0 0 0 1.503-4.6.5.5 0 1 1 .971.237 31.89 31.89 0 0 1-1.552 4.75c-.279.666-.59 1.335-.924 1.987a.498.498 0 0 1-.445.272Zm3.471-13.62-.034-.001a.5.5 0 0 1-.465-.532c.092-1.364.137-2.802.137-4.397 0-.875-.014-1.752-.036-2.631a.5.5 0 0 1 .487-.513c.278-.027.506.21.513.487.023.887.037 1.773.037 2.656a65.66 65.66 0 0 1-.139 4.464.502.502 0 0 1-.5.467Zm-.192-14.145a.5.5 0 0 1-.499-.478c-.091-2.034-.176-4.216-.176-6.399l.003-.702c.002-.276.193-.516.504-.496a.5.5 0 0 1 .496.504l-.003.695c0 2.162.084 4.332.175 6.354a.5.5 0 0 1-.477.522h-.023Zm42.756-6.16c-.909 0-1.799-.023-2.654-.061a.5.5 0 1 1 .043-.999c.841.037 1.716.06 2.611.06 1.569 0 3.044-.074 4.385-.218a.5.5 0 0 1 .108.994 42.34 42.34 0 0 1-4.493.224Zm-9.695-.509-.039-.001a275.44 275.44 0 0 1-7.062-.635.5.5 0 0 1-.446-.549.495.495 0 0 1 .549-.446c2.334.24 4.701.453 7.036.633a.5.5 0 0 1-.038.998Zm20.972-1.432a.5.5 0 0 1-.207-.956c2.245-1.017 3.956-2.469 5.085-4.317a.5.5 0 1 1 .854.522c-1.236 2.022-3.095 3.605-5.526 4.706a.488.488 0 0 1-.206.045Zm-35.05-.018a.473.473 0 0 1-.065-.004 273.065 273.065 0 0 1-7.02-1 .5.5 0 1 1 .154-.988c2.32.361 4.674.696 6.994.996a.5.5 0 0 1-.063.996Zm-13.986-2.177a.547.547 0 0 1-.09-.008 273.826 273.826 0 0 1-6.959-1.361.5.5 0 0 1 .205-.979c2.297.48 4.629.936 6.933 1.356a.5.5 0 0 1-.089.992Zm-13.854-2.895a.466.466 0 0 1-.116-.014 273.102 273.102 0 0 1-6.879-1.718.5.5 0 1 1 .255-.967 274.38 274.38 0 0 0 6.854 1.712.5.5 0 0 1-.114.987Zm9.179-.939a.5.5 0 0 1-.495-.573c.369-2.471.957-4.811 1.747-6.953a.501.501 0 0 1 .938.346c-.767 2.079-1.337 4.351-1.696 6.755a.5.5 0 0 1-.494.425Zm-22.865-2.669a.52.52 0 0 1-.14-.02 268.819 268.819 0 0 1-6.781-2.073.5.5 0 0 1 .305-.953c2.233.715 4.506 1.409 6.756 2.065a.5.5 0 0 1-.14.981Zm83.308-2.579a.5.5 0 0 1-.49-.404c-.378-1.943-1.57-3.829-3.544-5.608a.5.5 0 1 1 .669-.743c2.138 1.926 3.435 3.999 3.856 6.16a.5.5 0 0 1-.491.595Zm-96.785-1.747a.49.49 0 0 1-.167-.029 193.169 193.169 0 0 1-6.647-2.492.5.5 0 0 1 .368-.93c2.123.842 4.348 1.676 6.612 2.479a.5.5 0 0 1-.166.972Zm-13.155-5.231a.497.497 0 0 1-.204-.044 144.985 144.985 0 0 1-6.413-3.052.5.5 0 0 1 .452-.892 144.664 144.664 0 0 0 6.369 3.031.5.5 0 0 1-.204.957Zm54.517-.863a.5.5 0 0 1-.402-.797c1.363-1.844 2.963-3.39 4.757-4.594.171-.115.344-.227.518-.335a.5.5 0 1 1 .529.849 17.03 17.03 0 0 0-.49.317c-1.698 1.14-3.215 2.607-4.51 4.358a.498.498 0 0 1-.402.202Zm45.872-2.001a.5.5 0 0 1-.238-.06 74.23 74.23 0 0 0-2.441-1.258 49.678 49.678 0 0 0-3.906-1.727.5.5 0 0 1 .365-.931 50.739 50.739 0 0 1 3.985 1.762c.789.39 1.625.814 2.474 1.275a.5.5 0 0 1-.239.939Zm-113.001-3.552a.499.499 0 0 1-.251-.068 109.584 109.584 0 0 1-6.031-3.762.501.501 0 0 1 .557-.831 109.56 109.56 0 0 0 5.976 3.728.5.5 0 0 1-.251.933Zm99.849-1.569a.516.516 0 0 1-.116-.013 49.953 49.953 0 0 0-6.909-1.134.5.5 0 0 1 .092-.996c2.36.218 4.731.607 7.048 1.156a.5.5 0 0 1-.115.987Zm-21.052-.326a.5.5 0 0 1-.117-.986c1.637-.396 3.384-.674 5.339-.849a46.724 46.724 0 0 1 1.755-.125.5.5 0 1 1 .053.999 47.05 47.05 0 0 0-1.718.122c-1.906.17-3.605.44-5.193.825a.544.544 0 0 1-.119.014Zm-90.529-6.003a.495.495 0 0 1-.308-.107 84.527 84.527 0 0 1-5.413-4.621.5.5 0 0 1 .682-.732 83.42 83.42 0 0 0 5.348 4.566.5.5 0 0 1-.309.894Zm-10.323-9.654a.497.497 0 0 1-.376-.17 61.053 61.053 0 0 1-4.393-5.619.5.5 0 1 1 .823-.568 60.163 60.163 0 0 0 4.322 5.527.501.501 0 0 1-.376.83ZM5.72 83.075a.501.501 0 0 1-.445-.271 50.607 50.607 0 0 1-2.828-6.558.5.5 0 0 1 .944-.329 49.616 49.616 0 0 0 2.773 6.428.5.5 0 0 1-.444.73ZM1.118 69.746a.5.5 0 0 1-.492-.412A38.297 38.297 0 0 1 0 62.408l.001-.205a.496.496 0 0 1 .502-.498.5.5 0 0 1 .498.502L1 62.408a37.385 37.385 0 0 0 .61 6.75.499.499 0 0 1-.492.588Zm.05-14.077a.5.5 0 0 1-.492-.59 41.872 41.872 0 0 1 1.895-6.9.5.5 0 1 1 .938.346A40.812 40.812 0 0 0 1.66 55.26a.502.502 0 0 1-.492.409ZM6.05 42.456a.499.499 0 0 1-.432-.752 39.322 39.322 0 0 1 4.146-5.836.5.5 0 1 1 .758.652 38.347 38.347 0 0 0-4.041 5.687.495.495 0 0 1-.431.249Zm9.203-10.641a.499.499 0 0 1-.307-.895 37.853 37.853 0 0 1 6.052-3.826.5.5 0 0 1 .453.891 36.823 36.823 0 0 0-5.892 3.724.493.493 0 0 1-.306.106Zm61.452-6.205h-.007c-2.121-.028-4.381-.227-7.111-.626a.5.5 0 0 1 .145-.989c2.685.393 4.903.589 6.979.615a.5.5 0 0 1-.006 1Zm-48.941-.259a.5.5 0 0 1-.155-.976 61.136 61.136 0 0 1 6.904-1.792.5.5 0 0 1 .197.981 59.97 59.97 0 0 0-6.79 1.762.503.503 0 0 1-.156.025Zm34.922-1.572a.582.582 0 0 1-.092-.008c-2.146-.399-4.578-.852-6.956-1.189a.5.5 0 0 1 .14-.99c2.399.34 4.843.795 6.999 1.196a.5.5 0 0 1-.091.991Zm-21.082-1.288a.5.5 0 0 1-.056-.997c1.273-.146 2.628-.277 4.026-.388.889-.07 1.818-.106 2.763-.106l.328.002a.5.5 0 0 1 .496.505c-.003.276-.264.492-.504.495l-.32-.002c-.919 0-1.822.035-2.684.103-1.387.11-2.729.24-3.991.385a.578.578 0 0 1-.058.003Z"/></g></svg>