<svg width="769" height="25" fill="none" xmlns="http://www.w3.org/2000/svg"><path d="m11.873 19.852-6.194 4.716c-.218.15-.437.216-.657.199a1.423 1.423 0 0 1-.605-.186 1.011 1.011 0 0 1-.42-.481.862.862 0 0 1-.006-.682l2.366-7.77L.474 11.4C.247 11.26.103 11.08.04 10.86a1.007 1.007 0 0 1 .033-.657c.084-.218.211-.393.38-.526a.972.972 0 0 1 .618-.198h7.387l2.414-7.933c.093-.241.227-.431.401-.569a.942.942 0 0 1 .6-.204c.226 0 .426.068.6.204.174.138.308.328.4.57l2.415 7.932h7.386c.242 0 .448.066.619.198.17.133.297.308.38.526.083.219.094.438.033.657a.953.953 0 0 1-.434.544l-5.883 4.244 2.366 7.771a.862.862 0 0 1-.006.682 1.024 1.024 0 0 1-.42.48c-.184.108-.386.17-.606.187-.22.016-.438-.05-.656-.199l-6.194-4.716ZM42.617 19.852l-6.194 4.716c-.218.15-.437.216-.656.199a1.424 1.424 0 0 1-.606-.186 1.011 1.011 0 0 1-.42-.481.862.862 0 0 1-.006-.682l2.366-7.77-5.883-4.247c-.226-.142-.371-.322-.434-.542a1.007 1.007 0 0 1 .033-.657c.084-.218.211-.393.38-.526a.972.972 0 0 1 .619-.198h7.386l2.415-7.933c.092-.241.226-.431.4-.569a.942.942 0 0 1 .6-.204c.227 0 .426.068.6.204.174.138.308.328.4.57l2.415 7.932h7.387c.241 0 .447.066.618.198.17.133.297.308.38.526.083.219.094.438.033.657a.953.953 0 0 1-.434.544l-5.883 4.244 2.366 7.771a.861.861 0 0 1-.006.682 1.024 1.024 0 0 1-.42.48c-.184.108-.386.17-.605.187-.22.016-.439-.05-.657-.199l-6.194-4.716ZM73.363 19.852l-6.194 4.716c-.218.15-.437.216-.656.199a1.425 1.425 0 0 1-.606-.186 1.011 1.011 0 0 1-.42-.481.862.862 0 0 1-.006-.682l2.366-7.77-5.883-4.247c-.226-.142-.37-.322-.434-.542a1.007 1.007 0 0 1 .033-.657c.085-.218.212-.393.38-.526a.973.973 0 0 1 .619-.198h7.386l2.415-7.933c.092-.241.226-.431.4-.569a.942.942 0 0 1 .6-.204c.227 0 .427.068.6.204.174.138.308.328.4.57l2.415 7.932h7.387c.241 0 .447.066.618.198.17.133.297.308.38.526.084.219.094.438.033.657a.953.953 0 0 1-.434.544l-5.882 4.244 2.365 7.771a.861.861 0 0 1-.006.682 1.024 1.024 0 0 1-.42.48c-.184.108-.386.17-.605.187-.22.016-.439-.05-.657-.199l-6.194-4.716ZM104.107 19.852l-6.193 4.716c-.219.15-.438.216-.657.199a1.423 1.423 0 0 1-.606-.186 1.01 1.01 0 0 1-.42-.481.862.862 0 0 1-.005-.682l2.365-7.77-5.883-4.247c-.226-.142-.37-.322-.433-.542a1.006 1.006 0 0 1 .032-.657c.085-.218.212-.393.38-.526a.972.972 0 0 1 .619-.198h7.386l2.415-7.933c.093-.241.226-.431.401-.569a.94.94 0 0 1 .599-.204c.227 0 .427.068.6.204.174.138.308.328.401.57l2.414 7.932h7.387a.98.98 0 0 1 .618.198c.17.133.297.308.38.526.084.219.095.438.033.657a.953.953 0 0 1-.434.544l-5.882 4.244 2.365 7.771a.865.865 0 0 1-.006.682 1.023 1.023 0 0 1-.42.48c-.184.108-.386.17-.605.187-.22.016-.439-.05-.657-.199l-6.194-4.716ZM134.855 5.182v12.072l4.911 3.786-1.841-6.241 4.604-3.274h-5.73l-1.944-6.343Zm0 14.67-6.193 4.717c-.218.15-.437.216-.657.199a1.424 1.424 0 0 1-.606-.186 1.008 1.008 0 0 1-.419-.481.857.857 0 0 1-.006-.682l2.365-7.77-5.883-4.247c-.234-.136-.381-.316-.439-.538a1.047 1.047 0 0 1 .038-.66c.084-.219.211-.394.383-.527a.972.972 0 0 1 .614-.198h7.403l2.398-7.933c.086-.25.217-.44.395-.573a.972.972 0 0 1 .605-.202c.227 0 .429.066.606.2s.309.325.395.575l2.398 7.933h7.403c.24 0 .445.066.616.198.172.133.299.308.383.526.084.219.097.439.038.661-.058.222-.205.403-.439.54l-5.883 4.244 2.365 7.771a.857.857 0 0 1-.006.682 1.021 1.021 0 0 1-.419.48c-.185.108-.386.17-.606.187-.22.016-.439-.05-.657-.199l-6.192-4.716Z" fill="#F09D2E"/></svg>