<svg width="1440" height="751" fill="none" xmlns="http://www.w3.org/2000/svg"><path fill="#04369A" d="M.131 4h1440v685H.131z"/><path d="M1440 750.5H0V567.671l86.25-16.253 9.75-8.126 46.5 5.736 45.375 8.126 14.625 8.127 42-18.643 31.5 2.39 84.75-19.599 37.875 21.511 24.75-8.126 28.875 6.692 44.625-6.692H540l44.812 6.931 20.813 15.536 10.875 6.692 19.5 5.259 41.25 1.434 43.5-11.473 89.906-1.434 44.719-7.17L876 573.407l27-7.648 87.375 7.648 38.625-2.868 16.87-10.516-7.5-26.292 34.13.478 20.81-5.497 29.44 1.195 22.13-7.649h18l14.99 2.869 19.88 8.126h6.75L1218.75 517l11.25 8.127 21.38-5.259 8.24 6.215 9.75-6.215 14.63 13.385 14.53-4.422 11.72 1.076 12.37 10.994 18.76 5.259 48.74 9.082 23.63-3.824 26.25 4.302V750.5Z" fill="#fff"/><g filter="url(#a)"><path fill-rule="evenodd" clip-rule="evenodd" d="M1440.13 0H1.13v185.128l26.233 4.303 23.608-3.825 48.716 9.083 18.737 5.258 12.367 10.995 11.71 1.076 14.522-4.422 14.614 13.385 9.744-6.215 8.244 6.215 21.36-5.259 11.242 8.127 14.24-16.253h6.746l19.861 8.126 14.989 2.868h17.988l22.11-7.648 29.417 1.195 20.798-5.497 34.101.478-7.495-26.292 16.863-10.516 38.599-2.869 87.314 7.649 26.981-7.649 20.611 14.819 44.688-7.17 89.843-1.434 43.47-11.473 41.222 1.434 19.486 5.258 10.868 6.693 20.798 15.536 44.781 6.931h43.095l44.594-6.692 28.855 6.692 24.73-8.126 37.85 21.511 84.69-19.599 31.48 2.39 41.97-18.643 14.62 8.126 45.34 8.127 46.47 5.736 9.74-8.126 86.19-16.253V0Z" fill="#fff"/></g><g filter="url(#b)" fill="#fff"><path d="m17.19 181.435-15.727-1.554.09-11.95 15.736.598c4.064 7.68 14.917 9.674 18.664 9.703 3.747.029 7.913-5.676 9.044-6.624 1.132-.947 15.372-.839 20.986.16 5.613.999 7.44 7.227 8.19 7.233.749.005 11.63-1.825 13.883-2.286 1.801-.369 6.73 2.123 8.968 3.415 1.743 7.279 6.446 6.582 8.579 5.323 13.516-3.243 16.102 1.557 21.283 10.201 5.181 8.644 8.19 7.233 8.565 7.236 5.428-4.166 13.547-7.386 16.928-8.476 9.754-1.36 9.627 15.371 18.984 16.876 2.821.454 7.662-5.519 9.813-9.008.349 3.349 9.634 14.414 14.534 10.627 3.921-3.029 11.678-7.878 15.066-9.924 1.816 7.662 7.775 12.488 10.773 12.511 2.998.023 9.805-8.052 9.827-10.92.021-2.868 5.326-10.477 5.315-9.043-.009 1.148 3.729 2.419 5.599 2.911-.004.478 1.193.87 6.007-1.388 4.504-.922 14.909 10.63 17.907 10.653 2.398.018 4.761-1.876 5.643-2.825 3.833 8.442 7.067 7.065 8.204 5.32.508-1.111 2.954-3.993 8.67-6.626 7.145-3.292 5.93 8.65 7.818 6.752 1.889-1.898 10.548-7.091 17.315-9.907 6.767-2.817 11.591 3.434 20.574 4.937 8.982 1.502 19.548-7.978 26.311-10.317 6.764-2.339 20.203 4.456 28.436 5.953 8.234 1.496 12.01-2.299 12.752-1.338.594.77 4.708 5.135 6.691 7.222-8.153 7.587-36.124 2.912-49.09-.373-6.939 5.683-24.42 7.941-32.293 8.359-10.126-8.873-24.734-.029-30.772 5.502-3.225-9.585-10.58-5.02-13.854-1.539-6.645 6.45-9.492-.232-10.085-4.379-3.339 5.328-6.402 4.094-7.517 2.811-12.679-8.224-17.15-11.604-19.413-9.709-2.263 1.895-4.133 1.403-5.258 1.394-.899-.007-2.856-2.252-3.721-3.374-.624-.164-2.026.271-2.649 3.326-.623 3.055-5.579 10.793-7.979 14.28-6.045 6.456-12.705-4.717-15.28-11.111l-6.782 4.729c-7.541 6.062-11.418 6.606-12.413 6.12-3.301.357-8.565-7.236-10.784-11.077-4.933 8.089-13.974 14.235-19.486-.148-5.512-14.383-20.611-.157-22.109-.168-5.432 4.548-8.009 1.851-8.619-.066-11.873-15.77-18.11-16.869-19.745-15.447-12.92 3.726-14.603-1.705-13.829-4.886l-9.725-2.464c-1.807 1.133-9.509 1.999-13.134 2.29-6.214-10.755-22.293-8.774-29.556-6.439-10.583 11.775-22.633 2.855-27.334-3.076ZM392.024 171.38c-.382.953 4.06 8.157 4.057 8.635 10.55-7.568 23.181-9.384 28.177-9.346 12.364-9.467 21.391-3.821 24.358.185 12.05-7.557 13.08 4.88 31.827 3.589 14.952 5.085 27.218 1.96 31.482-.239 5.334 8.21 14.684 7.34 18.693 5.879 24.402-15.494 33.192-11.698 34.537-7.863 7.531-4.723 14.153 11.58 19.01 13.529 4.857 1.949 7.171-6.638 7.545-6.635.375.002 5.229 2.43 12.709 4.399 5.984 1.575 19.753-2.081 25.889-4.106 8.068 3.503 31.592 1.675 42.345.322 8.59 3.89 2.587 4.8 23.619-1.254 21.033-6.055 16.474 2.037 23.994-1.252 6.016-2.631 17.501-1.619 22.492-.785 1.383-1.264 4.751-3.884 7.152-4.248 2.402-.364 4.491.831 5.236 1.474.014-1.912 3.285-4.915 4.919-6.177 19.144-4.157 35.574 3.617 36.323 3.623.75.005-.011 1.434 5.636-1.87 5.646-3.303 8.957 4.849 9.332 4.852 11.297-7.085 14.225 2.02 16.456 4.427 2.23 2.408 13.075 5.358 17.925 8.263 4.85 2.906 11.893 12.998 16.001 14.941 3.286 1.555 20.608.476 28.858-.258 3.333 5.284 25.835 3.065 29.968 1.662 4.133-1.403 8.594 3.412 9.729 1.986 1.135-1.425 17.241-.347 34.53-6.908 13.831-5.249 32.244-1.985 39.717.302 10.38 15.377 22.46 3.518 26.62-.753 3.32-3.417 7.39-2.972 9.01-2.322 2.12 1.132 6.72 3.397 8.22 3.409 1.87.014 8.93 8.195 11.18 8.69 1.79.396 3.5-.77 4.13-1.403 4.8 8.641 7.8 9.142 15.26 13.501 5.97 3.488 21.04-7.329 27.83-13.173 6.71 4.831 14.24.586 21-.797 5.4-1.106 8.74-.411 9.74.074 5.39-2.986 19.62-7.786 33.38-3.092 13.75 4.694 24.73-.768 28.51-4.085 13.11.099 27.82-12.218 31.96-14.099 4.14-1.88 13.87-.85 13.86.106 0 .956 4.05 10.07 4.8 10.075.6.005 1.51-1.263 1.89-1.898 5.97 3.105 22.68 6.866 30.29 8.358l37.09.76c7.23-3.77 19.98 1.745 25.45 4.974l4.87.037.01-1.434c-9.25-15.846 27.39-4.094 29.27-4.08 1.49.011 5.15-4.104 6.79-6.163l-1.49-.967c-.75-.484 1.2-10.986.44-9.558-.61 1.143-4.01-5.809-9 .339-32.16-8.849-26.99 2.256-27.01 4.646-.02 2.39 1.08 5.745-.8 6.208-1.5.371-14.33-4.411-20.56-6.849-2.25.939-7.44 2.334-10.12.401-3.35-2.415-40.83-.27-35.6-.27 2.43 0-19.83-4.454-24.31-5.922-3.59-1.175-5.23-2.749-5.6-3.389-.13.637-.61 2.003-1.52 2.379-1.12.469-2.94-6.715-4.78-11.032-1.48-3.453-10.11-1.511-14.24-.108-6.06 7.603-30.48 15.544-32.36 16.486-1.88.941-5.67 7.127-12.4 5.164-6.73-1.964-28.84-2.61-31.09-3.105-2.24-.495-14.27 4.194-18.78 5.594-4.5 1.399-1.12.469-6.73-1.486s-9.4 3.753-13.52 4.2c-3.3.357-7.61-1.811-9.35-2.94-11.33 11.387-15.07 9.925-23.35 14.642-8.28 4.718-19.74-15.925-19.74-15.447 0 .478-4.14 1.88-6.38 1.385-2.25-.495-8.19-7.711-8.93-8.194-.75-.484-.75-.006-5.6-3.389-3.88-2.707-7.36-1.172-8.62-.066-2.77 3.007-9.74 9.487-15.45 11.356-7.14 2.335-11.95-5.828-14.18-8.235-2.23-2.407-13.849-2.018-14.598-2.023-8.668-3.508-17.102-1.564-20.236-.154-9.922 3.749-31.661 7.408-41.29 8.769-1.837-4.795-23.255 2.691-31.478-.24-6.577-2.345-8.966-3.574-9.339-3.895-11.267 3.26-22.869 1.26-26.606-.203-3.736-1.462-11.489-16.819-15.244-15.891-3.004.742-13.944-6.161-19.039-9.705-5.901-12.474-11.202-5.344-11.948-5.828-.746-.484-3.023 3.323-3.758 1.405-.735-1.917-4.46-4.814-7.466-3.881-3.005.934-6.377.908-7.127.903-5.585-4.823-24.336-3.054-28.833-3.088l-7.12-.054c-2.698-.021-4.655 4.426-5.297 6.652-2.061-4.987-8.62.094-11.642 3.258-3.874-3.089-10.608-1.355-13.491-.103-3.13.933-10.734 2.213-16.113-.122-6.724-2.92-15 1.32-17.634 2.734-2.634 1.414-13.898 4.197-19.141 3.679-5.243-.518-3.715-4.331-5.599-2.911-1.885 1.42-31.489 1.194-36.35-.277-3.888-1.177-9.871.403-12.377 1.34-14.436 6.009-26.993 1.388-31.467-1.673-1.231 4.197-4.044 6.184-5.297 6.652-3.769 2.84-11.173-9.168-13.767-13.012-2.594-3.844-4.104-2.421-4.86-1.471-.606.76-2.501.3-3.373-.025-7.062-7.703-25.511 3.63-34.174 9.3-8.662 5.671-16.819-5.864-17.943-5.873-1.124-.008-9.027 4.234-11.646 3.736-2.096-.398-14.095-2.816-19.832-3.975-1.259 1.265-6.165 2.439-15.717-2.988-9.553-5.427-14.221-2.658-15.361-.596-4.75-6.155-9.692-6.766-11.569-6.301-3.733-1.941-13.163 6.113-14.287 6.105-8.972-2.937-31.205 13.148-31.587 14.101Z"/><path d="M1385.79 182.764c.74 1.439-.76 1.428-1.14 1.903l13.12.1c3.11 1.458 10.02 3.423 12.74-.381 2.73-3.804 5.38-1.234 6.37.526.91-1.14 15.63-2.271 22.88-2.694l.1-13.384c-1.86-1.449-22.89 3.65-23.62 2.21-.59-1.152-1.74-1.766-2.24-1.929-1.26 1.106-4.37 3.504-6.78 4.251-3 .933-6.74-.051-8.6-1.5-1.87-1.448-15.37-.117-16.5 1.309-1.14 1.425 1.1 3.355 2.56 7.668 1.47 4.314.37.481 1.11 1.921Z"/></g><path d="m1386.88 499.755 1.5-4.981-3.95-3.577 5.45-.195 2.37-4.652 1.88 4.848 5.4.697-4.29 3.196.98 5.095-4.53-2.89-4.81 2.459Z" fill="#FF6A07"/><path d="m1386.88 499.755 1.5-4.981-3.95-3.577 5.45-.195 2.37-4.652 1.88 4.848 5.4.697-4.29 3.196.98 5.095-4.53-2.89-4.81 2.459Z" fill="#FF6A07" fill-opacity=".1"/><defs><filter id="a" x="-2.869" y="0" width="1447" height="231.849" filterUnits="userSpaceOnUse" color-interpolation-filters="sRGB"><feFlood flood-opacity="0" result="BackgroundImageFix"/><feColorMatrix in="SourceAlpha" values="0 0 0 0 0 0 0 0 0 0 0 0 0 0 0 0 0 0 127 0" result="hardAlpha"/><feOffset dy="4"/><feGaussianBlur stdDeviation="2"/><feComposite in2="hardAlpha" operator="out"/><feColorMatrix values="0 0 0 0 0 0 0 0 0 0 0 0 0 0 0 0 0 0 0.25 0"/><feBlend in2="BackgroundImageFix" result="effect1_dropShadow_0_1"/><feBlend in="SourceGraphic" in2="effect1_dropShadow_0_1" result="shape"/></filter><filter id="b" x="-23.537" y="129.872" width="1488.4" height="124.249" filterUnits="userSpaceOnUse" color-interpolation-filters="sRGB"><feFlood flood-opacity="0" result="BackgroundImageFix"/><feColorMatrix in="SourceAlpha" values="0 0 0 0 0 0 0 0 0 0 0 0 0 0 0 0 0 0 127 0" result="hardAlpha"/><feOffset dy="4"/><feGaussianBlur stdDeviation="12.5"/><feComposite in2="hardAlpha" operator="out"/><feColorMatrix values="0 0 0 0 0 0 0 0 0 0 0 0 0 0 0 0 0 0 0.25 0"/><feBlend in2="BackgroundImageFix" result="effect1_dropShadow_0_1"/><feBlend in="SourceGraphic" in2="effect1_dropShadow_0_1" result="shape"/></filter></defs></svg>