<svg width="29" height="28" fill="none" xmlns="http://www.w3.org/2000/svg"><path d="M28.03 13.93c0 7.505-6.053 13.586-13.518 13.586C7.048 27.516.994 21.435.994 13.93S7.048.343 14.512.343c7.465 0 13.519 6.082 13.519 13.587Z" stroke="#000" stroke-width=".687"/><path d="M21.564 9.7a5.854 5.854 0 0 1-1.435 1.5 8.417 8.417 0 0 1-1.354 4.948 8.803 8.803 0 0 1-1.644 1.894c-.636.55-1.4.988-2.293 1.315-.894.327-1.85.49-2.872.49a7.925 7.925 0 0 1-4.403-1.306c.238.027.466.04.685.04 1.331 0 2.52-.415 3.568-1.245a2.764 2.764 0 0 1-1.668-.58 2.857 2.857 0 0 1-1.015-1.44 2.855 2.855 0 0 0 1.298-.048 2.792 2.792 0 0 1-1.65-1.002 2.834 2.834 0 0 1-.654-1.848v-.036c.406.228.84.35 1.301.364a2.878 2.878 0 0 1-.934-1.036 2.865 2.865 0 0 1-.344-1.383c0-.523.129-1.01.388-1.46a8.197 8.197 0 0 0 2.62 2.145 7.909 7.909 0 0 0 3.3.892 2.866 2.866 0 0 1-.075-.662c0-.802.28-1.487.841-2.055a2.75 2.75 0 0 1 2.031-.852c.83 0 1.53.306 2.097.918a5.678 5.678 0 0 0 1.824-.706 2.804 2.804 0 0 1-1.262 1.609 5.688 5.688 0 0 0 1.65-.457Z" fill="#000"/></svg>