<svg width="30" height="30" fill="none" xmlns="http://www.w3.org/2000/svg"><path d="M14.534 28.692c7.749 0 14.026-6.311 14.026-14.092C28.56 6.82 22.283.508 14.534.508 6.786.508.508 6.82.508 14.6s6.278 14.092 14.026 14.092Z" stroke="#000" stroke-width=".983"/><path d="M16.15 20.495H12.947V14.763H11.1v-3.226h1.842v-1.154c0-1.053.31-1.927.906-2.539.596-.613 1.423-.91 2.347-.91h.001v.492c.553-.002 1.105.027 1.654.089l-1.701 12.98Zm0 0v-5.728m0 5.728v-5.728m0 0H17.947l.053-.431.275-2.243.068-.552H16.15v3.226Z" fill="#fff" stroke="#000" stroke-width=".983"/></svg>