<svg width="142" height="122" fill="none" xmlns="http://www.w3.org/2000/svg"><path d="M56.084 95.093c0 7.577-2.652 13.922-7.956 19.036-5.303 5.114-11.932 7.671-19.887 7.671-7.577 0-14.017-2.936-19.32-8.808C3.618 107.121.966 99.734.966 90.832c0-6.44 1.42-13.543 4.261-21.309 3.031-7.765 6.914-15.626 11.65-23.581 4.924-7.955 10.417-15.816 16.478-23.581C39.605 14.406 45.855 7.019 52.106.2l7.671 6.25c-8.523 10.039-15.626 20.172-21.308 30.4-5.683 10.228-9.092 20.267-10.228 30.116 7.576.569 14.11 3.41 19.603 8.524 5.493 5.114 8.24 11.648 8.24 19.603Zm81.54 0c0 7.577-2.652 13.922-7.955 19.036-5.304 5.114-11.933 7.671-19.888 7.671-7.577 0-14.016-2.936-19.32-8.808-5.303-5.871-7.955-13.258-7.955-22.16 0-6.44 1.42-13.543 4.262-21.309 3.03-7.765 6.913-15.626 11.648-23.581 4.925-7.955 10.418-15.816 16.479-23.581 6.25-7.955 12.501-15.342 18.751-22.161l7.387 6.25c-8.523 10.039-15.626 20.172-21.308 30.4-5.493 10.228-8.808 20.267-9.944 30.116 7.576.569 14.111 3.41 19.604 8.524 5.492 5.114 8.239 11.648 8.239 19.603Z" fill="#fff" fill-opacity=".12"/></svg>