<svg width="51" height="54" fill="none" xmlns="http://www.w3.org/2000/svg"><path d="M43.553 49a9.374 9.374 0 0 0 2.86-1.972C50 43.391 50 37.538 50 25.83c0-11.704 0-17.557-3.587-21.192C42.823 1 37.05 1 25.5 1 13.951 1 8.175 1 4.587 4.638 1 8.275 1 14.126 1 25.83c0 11.705 0 17.558 3.587 21.196a9.405 9.405 0 0 0 2.86 1.971M1 17.865h49M12.605 10.08h.024m10.292 0h.023" stroke="#000" stroke-width="1.5" stroke-linecap="round" stroke-linejoin="round"/><path d="M20.525 38.633c-2.776 0-3.967 1.994-4.275 3.22-.309 1.224-.309 5.669-.124 7.509.617 2.297 2.16 3.245 3.672 3.552 1.388.125 7.25.077 8.947.077 2.468.048 4.319-.872 5.09-3.63.154-.92.309-5.98-.077-7.51-.818-2.454-2.692-3.218-4.234-3.218m-8.999 0h8.999m-8.999 0c0-.153-.005-2.11 0-3.22 0-1.017-.087-1.993.401-2.888 1.826-3.61 7.07-3.245 8.366.435.224.605.24 1.564.232 2.453-.008 1.13 0 3.22 0 3.22" stroke="#000" stroke-width="1.5" stroke-linecap="round" stroke-linejoin="round"/></svg>