<svg width="335" height="111" fill="none" xmlns="http://www.w3.org/2000/svg"><path d="M110.846 55.423c0 30.609-24.814 55.423-55.423 55.423C24.813 110.846 0 86.032 0 55.423 0 24.813 24.814 0 55.423 0s55.423 24.814 55.423 55.423Zm-103.014 0c0 26.283 21.307 47.59 47.59 47.59 26.284 0 47.591-21.307 47.591-47.59 0-26.284-21.307-47.59-47.59-47.59-26.284 0-47.59 21.306-47.59 47.59Z" fill="#D9D9D9"/><path d="M110.846 55.423a55.424 55.424 0 0 0-87.918-44.898l4.918 6.794a47.036 47.036 0 0 1 74.613 38.104h8.387Z" fill="#FF6A07"/><path stroke="#fff" stroke-width=".744" d="m110.846 55.031 223.923.04"/></svg>